<svg width="47" height="47" viewBox="0 0 47 47" fill="none" xmlns="http://www.w3.org/2000/svg">
<path d="M17.6488 38.0693C9.56568 34.8925 5.57451 25.7328 8.7513 17.6497C11.9281 9.56656 21.0877 5.57538 29.1709 8.75218C37.254 11.929 41.2452 21.0886 38.0684 29.1718C34.8916 37.2549 25.732 41.2461 17.6488 38.0693ZM28.3479 10.8463C21.4165 8.12211 13.5695 11.5413 10.8454 18.4727C8.12124 25.4041 11.5404 33.2511 18.4718 35.9752C25.4032 38.6993 33.2502 35.2801 35.9743 28.3487C38.6985 21.4173 35.2793 13.5704 28.3479 10.8463Z" fill="black"/>
<path d="M20.5294 30.74C19.943 30.5096 19.6634 29.8678 19.8938 29.2815L24.8318 16.717C25.0623 16.1307 25.704 15.851 26.2904 16.0815C26.8767 16.3119 27.1564 16.9537 26.9259 17.54L21.9879 30.1045C21.7575 30.6908 21.1157 30.9705 20.5294 30.74Z" fill="black"/>
<path d="M29.2806 26.9268L16.7162 21.9888C16.1298 21.7584 15.8502 21.1166 16.0806 20.5303C16.3111 19.9439 16.9528 19.6643 17.5392 19.8947L30.1036 24.8327C30.69 25.0632 30.9696 25.7049 30.7392 26.2913C30.5087 26.8776 29.867 27.1573 29.2806 26.9268Z" fill="black"/>
</svg>
