<svg width="56" height="56" viewBox="0 0 56 56" fill="none" xmlns="http://www.w3.org/2000/svg">
<path d="M32.2068 10.3127C32.4664 10.3139 32.7199 10.392 32.9351 10.5371C33.1503 10.6823 33.3176 10.8881 33.4159 11.1284L36.2273 18.0008C36.3591 18.323 36.3575 18.6843 36.2229 19.0054C36.0883 19.3264 35.8317 19.5808 35.5095 19.7126L28.6371 22.524C28.3969 22.622 28.133 22.6466 27.8788 22.5948C27.6247 22.5429 27.3915 22.4169 27.2089 22.2326C27.0263 22.0484 26.9024 21.8141 26.8529 21.5595C26.8033 21.3048 26.8303 21.0412 26.9305 20.8019L28.4624 17.1424C25.6707 17.1194 22.9492 18.0178 20.7199 19.6985C18.4906 21.3792 16.8779 23.7483 16.1317 26.4386C15.3855 29.129 15.5476 31.9903 16.5928 34.5792C17.6379 37.168 19.5079 39.3399 21.9127 40.7581C24.3175 42.1763 27.123 42.7617 29.8944 42.4236C32.6657 42.0854 35.2481 40.8426 37.2414 38.8878C39.2347 36.9329 40.5275 34.3752 40.9195 31.6109C41.3115 28.8467 40.7808 26.0304 39.4097 23.5984C39.2469 23.2958 39.2093 22.9414 39.3049 22.6114C39.4005 22.2814 39.6217 22.0021 39.921 21.8333C40.2203 21.6646 40.5739 21.62 40.9057 21.709C41.2375 21.798 41.5212 22.0137 41.6959 22.3095C43.373 25.2843 44.0077 28.7343 43.4989 32.1112C42.9901 35.488 41.3672 38.5979 38.888 40.9464C36.4088 43.2949 33.2157 44.7473 29.8162 45.0727C26.4168 45.3981 23.0062 44.5777 20.1265 42.7421C17.2468 40.9065 15.0634 38.1609 13.9233 34.9419C12.7833 31.7229 12.752 28.2151 13.8344 24.9762C14.9169 21.7373 17.0509 18.9533 19.8974 17.0665C22.7438 15.1798 26.1393 14.2988 29.544 14.5634L30.9892 11.1171C31.0898 10.878 31.2589 10.674 31.4754 10.5309C31.6918 10.3879 31.9474 10.3115 32.2068 10.3127Z" fill="black"/>
</svg>
